<svg id="Capa_1" enable-background="new 0 0 512 512" height="512" viewBox="0 0 512 512" width="512" xmlns="http://www.w3.org/2000/svg"><g><g><g><g><path d="m120.115 0c-36.228 0-65.702 29.474-65.702 65.702v373.609l91.159-9.555 18.411-191.897-18.411-237.859z" fill="#6ae1db"/><g><path d="m145.572 0v401.074l159.935-16.763 32.078-177.814-32.078-206.497z" fill="#21c8c7"/><path d="m457.587 0h-152.08v386.601l152.08-15.829z" fill="#3aaeb6"/></g><g><g><path d="m135.077 386.601c-29.413 0-53.258 23.844-53.258 53.258 0 .512.024 1.019.039 1.527.811 28.705 24.318 51.73 53.219 51.73h170.43l12.611-41.194-12.611-65.322h-170.43z" fill="#f7fcff"/><path d="m414.981 441.43c0-.015.001-.03.001-.044.025-22.362 19.778-40.546 42.604-40.546l-26.251-14.239h-125.828v106.515h133.425l18.655-11.139c-22.842 0-42.606-18.165-42.606-40.547z" fill="#ecf3fb"/></g><g><path d="m125.027 400.84h20.545l9.787-16.152-9.787-13.915h-20.545c-38.937 0-70.614 31.677-70.614 70.614s31.678 70.613 70.614 70.613h20.545l13.161-15.032-13.161-15.032-20.545-.003c-22.357 0-40.546-18.189-40.546-40.546 0-22.358 18.189-40.547 40.546-40.547z" fill="#21c8c7"/></g></g><g><path d="m145.572 456.154h159.935l14.82-14.768-14.82-15.3h-159.935z" fill="#ecf3fb"/><g fill="#3aaeb6"><path d="m145.572 370.772v30.068h159.935l13.225-14.239-13.225-15.829z"/><path d="m145.572 512h159.935l17.137-12.898-17.137-17.145-159.935-.022z"/></g></g><path d="m305.507 370.772h152.08v30.068h-152.08z" fill="#17a0a9"/><path d="m417.814 456.154c-1.822-4.568-2.833-9.531-2.833-14.723 0-.015.001-.03.001-.044.006-5.412 1.106-10.576 3.082-15.3h-112.557v30.068h112.307z" fill="#e0e6f5"/></g><path d="m457.587 512v-30.023l-152.08-.02v30.043z" fill="#17a0a9"/></g></g><g><g><g><g><g><path d="m211.002 305.705h29.977v28.307h-29.977z" fill="#feeba8"/></g><g><path d="m240.979 275.728h28.35v29.977h-28.35z" fill="#feeba8"/></g></g></g></g><g><g><g><g><path d="m354.046 275.545h28.291v29.977h-28.291z" fill="#fddb63"/></g></g></g></g></g><g><path d="m271.541 112.517-52.529 18.646 31.537 45.96 1.501 55.719 53.457-15.789 13.225-60.879-13.225-87.852z" fill="#feeba8"/></g><path d="m339.473 112.517-33.966-44.195v148.731l53.456 15.789 1.502-55.719 31.536-45.96z" fill="#fddb63"/></g></svg>