<svg id="Capa_1" enable-background="new 0 0 497 497" height="512" viewBox="0 0 497 497" width="512" xmlns="http://www.w3.org/2000/svg"><g><g><path d="m368.5 0c-9.673 0-229.942 0-240 0v497h240c33.137 0 60-26.863 60-60v-377c0-33.137-26.863-60-60-60z" fill="#676fb2"/><path d="m168.5 377v-257c0-66.274 53.726-120 120-120h-160c-33.137 0-60 26.863-60 60v377c0 33.137 26.863 60 60 60h160c-66.274 0-120-53.726-120-120z" fill="#4c5699"/></g><g><path d="m338.5 60h-30c-8.284 0-15 6.716-15 15s-6.716 15-15 15h-60c-8.284 0-15-6.716-15-15s-6.716-15-15-15h-30v377h180c16.569 0 30-13.432 30-30v-317c0-16.568-13.431-30-30-30z" fill="#b9f0ff"/><path d="m168.5 120c0-21.858 5.847-42.349 16.058-60h-26.058c-16.569 0-30 13.432-30 30v317c0 16.568 13.431 30 30 30h26.058c-10.211-17.651-16.058-38.142-16.058-60v-80.014l30-43.344-30-43.344z" fill="#7ce3ff"/></g><circle cx="248.5" cy="45" fill="#4c5699" r="15"/><g><g><g><ellipse cx="168.943" cy="395.865" fill="#ff8e9e" rx="29.355" ry="23.377"/></g><g><ellipse cx="328.057" cy="395.865" fill="#ff8e9e" rx="29.355" ry="23.377"/></g></g></g><g><path d="m247.885 120c-32.532 0-59 26.468-59 59v16l15 15 15-15v-16c0-15.99 13.01-29 29-29s29 13.01 29 29v16l15 15 15-15v-16c0-32.532-26.468-59-59-59z" fill="#8288cb"/><g><g><path d="m313.145 195h-85.668v117.284h85.668c8.449 0 15.298-6.849 15.298-15.298v-86.688c-.001-8.449-6.85-15.298-15.298-15.298z" fill="#ffce71"/></g><path d="m242.774 296.986v-86.688c0-8.449 6.849-15.298 15.298-15.298h-74.277c-8.449 0-15.298 6.849-15.298 15.298v86.688c0 8.449 6.849 15.298 15.298 15.298h74.277c-8.448 0-15.298-6.85-15.298-15.298z" fill="#ffb357"/></g></g><g fill="#313d40"><path d="m186.051 353.862c-4.143 0-7.5 3.357-7.5 7.5v12c0 4.143 3.357 7.5 7.5 7.5s7.5-3.357 7.5-7.5v-12c0-4.142-3.358-7.5-7.5-7.5z"/><path d="m310.948 353.862c-4.143 0-7.5 3.357-7.5 7.5v12c0 4.143 3.357 7.5 7.5 7.5s7.5-3.357 7.5-7.5v-12c0-4.142-3.357-7.5-7.5-7.5z"/><path d="m269.891 367.351c-3.122-2.723-7.861-2.396-10.581.728-2.729 3.132-6.669 4.928-10.81 4.928s-8.08-1.796-10.81-4.928c-2.721-3.124-7.459-3.449-10.581-.728-3.123 2.721-3.449 7.459-.728 10.581 5.578 6.402 13.641 10.074 22.118 10.074s16.54-3.672 22.118-10.074c2.723-3.122 2.397-7.861-.726-10.581z"/></g></g></svg>