<?xml version="1.0" encoding="iso-8859-1"?>
<!-- Generator: Adobe Illustrator 19.0.0, SVG Export Plug-In . SVG Version: 6.00 Build 0)  -->
<svg version="1.1" id="Capa_1" xmlns="http://www.w3.org/2000/svg" xmlns:xlink="http://www.w3.org/1999/xlink" x="0px" y="0px"
	 viewBox="0 0 511.999 511.999" style="enable-background:new 0 0 511.999 511.999;" xml:space="preserve">
<path style="fill:#DB9E67;" d="M312.775,453.737c-28.807,12.903-59.588,15.622-88.304,9.68
	c-43.945-9.085-83.046-38.436-102.808-82.523c-32.655-72.883-0.04-158.448,72.843-191.113c18.584-8.33,45.92-15.965,76.882-21.504
	c90.45-16.206,211.811-14.585,236.136,39.725C540.188,280.885,385.668,421.072,312.775,453.737z"/>
<g>
	<path style="fill:#B4732D;" d="M306.359,322.796c0,60.162-33.017,112.76-81.888,140.62c-43.945-9.085-83.046-38.436-102.808-82.523
		c-32.655-72.883-0.04-158.448,72.843-191.113c18.584-8.33,45.92-15.965,76.882-21.504
		C292.368,222.345,306.359,283.232,306.359,322.796z"/>
	<path style="fill:#B4732D;" d="M312.775,453.74c-72.884,32.658-158.45,0.045-191.111-72.846c-1.307-2.917-2.511-5.853-3.6-8.803
		c35.316,66.839,116.964,95.636,186.93,64.285c69.974-31.354,215.183-161.811,197.789-236.68c1.853,2.617,3.436,5.382,4.744,8.299
		C540.189,280.886,385.667,421.078,312.775,453.74z"/>
	<path style="fill:#B4732D;" d="M183.509,278.535c-2.417,0-4.797-1.131-6.304-3.251c-2.472-3.478-1.657-8.302,1.82-10.774
		c69.047-49.091,133.845-64.781,176.045-69.3c46.031-4.93,75.479,1.827,76.71,2.117c4.154,0.978,6.728,5.138,5.75,9.292
		c-0.977,4.149-5.132,6.722-9.281,5.752l0,0c-0.282-0.066-28.658-6.493-72.273-1.715c-40.193,4.402-101.965,19.504-167.996,66.449
		C186.621,278.07,185.057,278.535,183.509,278.535z"/>
	<path style="fill:#B4732D;" d="M253.156,425.272c-3.915,0-7.272-2.965-7.677-6.944c-0.433-4.245,2.658-8.037,6.903-8.47
		c58.704-5.982,102.733-50.214,103.171-50.66c2.99-3.045,7.88-3.091,10.927-0.102c3.045,2.989,3.091,7.881,0.102,10.927
		c-1.948,1.984-48.435,48.666-112.632,55.207C253.683,425.258,253.418,425.272,253.156,425.272z"/>
	<path style="fill:#B4732D;" d="M313.083,336.146c-2.854,0-5.597-1.587-6.94-4.321c-1.882-3.829-0.303-8.46,3.526-10.342
		l89.909-44.186c3.83-1.882,8.46-0.304,10.342,3.527c1.882,3.829,0.303,8.46-3.526,10.342l-89.909,44.186
		C315.389,335.89,314.227,336.146,313.083,336.146z"/>
</g>
<path style="fill:#A4E869;" d="M289.237,322.796c0,79.871-64.748,144.618-144.618,144.618S0,402.666,0,322.796
	s64.748-278.21,144.618-278.21S289.237,242.925,289.237,322.796z"/>
<g>
	<path style="fill:#54CE3E;" d="M289.241,322.799c0,79.866-64.75,144.616-144.625,144.616c-3.197,0-6.368-0.102-9.505-0.315
		c75.437-4.897,135.102-67.632,135.102-144.301c0-76.678-59.674-262.536-135.111-277.279c3.146-0.621,6.317-0.935,9.513-0.935
		C224.491,44.585,289.241,242.924,289.241,322.799z"/>
	<path style="fill:#54CE3E;" d="M69.433,373.695c-3.61,0.001-6.837-2.542-7.569-6.216c-16.563-83.085-4.386-148.634,8.745-188.992
		c14.323-44.02,32.53-68.134,33.298-69.139c2.591-3.388,7.44-4.037,10.83-1.447c3.387,2.589,4.037,7.432,1.454,10.822l0,0
		c-0.175,0.23-17.643,23.499-31.118,65.253c-12.418,38.48-23.895,101.027-8.055,180.481c0.834,4.185-1.882,8.255-6.067,9.089
		C70.442,373.647,69.934,373.695,69.433,373.695z"/>
	<path style="fill:#54CE3E;" d="M198.426,423.607c-2.009,0-4.016-0.779-5.53-2.33c-2.98-3.054-2.921-7.946,0.133-10.926
		c27.431-26.771,40.448-62.507,38.689-106.216c-1.337-33.221-11.164-58.785-11.263-59.039c-1.548-3.973,0.414-8.453,4.386-10.005
		c3.971-1.55,8.449,0.403,10.004,4.374c0.439,1.121,10.768,27.848,12.292,63.544c2.041,47.812-12.937,88.755-43.315,118.4
		C202.319,422.876,200.371,423.607,198.426,423.607z"/>
	<path style="fill:#54CE3E;" d="M174.994,279.005c-4.14,0-7.568-3.281-7.716-7.452l-3.559-100.118
		c-0.152-4.265,3.183-7.844,7.447-7.996c4.272-0.12,7.845,3.182,7.996,7.447l3.559,100.118c0.152,4.265-3.183,7.844-7.447,7.996
		C175.18,279.003,175.087,279.005,174.994,279.005z"/>
	<path style="fill:#54CE3E;" d="M120.55,436.051c-0.877,0-1.769-0.15-2.641-0.468c-21.171-7.702-38.035-26.183-38.742-26.967
		c-2.861-3.166-2.614-8.051,0.552-10.912c3.164-2.86,8.048-2.613,10.908,0.547c0.245,0.27,15.121,16.464,32.565,22.811
		c4.01,1.459,6.078,5.892,4.619,9.902C126.67,434.103,123.706,436.051,120.55,436.051z"/>
	<path style="fill:#54CE3E;" d="M179.365,310.529c-4.267,0-7.726-3.459-7.726-7.726v-0.701c0-4.268,3.459-7.726,7.726-7.726
		s7.726,3.459,7.726,7.726v0.701C187.091,307.07,183.632,310.529,179.365,310.529z"/>
	<path style="fill:#54CE3E;" d="M160.323,330.887c-4.267,0-7.726-3.459-7.726-7.726v-0.701c0-4.268,3.459-7.726,7.726-7.726
		s7.726,3.459,7.726,7.726v0.701C168.05,327.429,164.591,330.887,160.323,330.887z"/>
	<path style="fill:#54CE3E;" d="M184.904,365.493c-4.267,0-7.726-3.459-7.726-7.726v-0.701c0-4.268,3.459-7.726,7.726-7.726
		s7.726,3.459,7.726,7.726v0.701C192.63,362.034,189.171,365.493,184.904,365.493z"/>
</g>
<g>
</g>
<g>
</g>
<g>
</g>
<g>
</g>
<g>
</g>
<g>
</g>
<g>
</g>
<g>
</g>
<g>
</g>
<g>
</g>
<g>
</g>
<g>
</g>
<g>
</g>
<g>
</g>
<g>
</g>
</svg>
