<?xml version="1.0" encoding="utf-8"?>
<!-- Generator: Adobe Illustrator 23.0.1, SVG Export Plug-In . SVG Version: 6.00 Build 0)  -->
<svg version="1.1" id="Capa_1" xmlns="http://www.w3.org/2000/svg" xmlns:xlink="http://www.w3.org/1999/xlink" x="0px" y="0px"
	 viewBox="0 0 512 512" style="enable-background:new 0 0 512 512;" xml:space="preserve">
<style type="text/css">
	.st0{fill:#422C73;}
	.st1{fill:#6A46B9;}
	.st2{fill:#FFE290;}
	.st3{fill:#FFF5D9;}
	.st4{fill:#FFCE47;}
	.st5{fill:#FFFFFF;stroke:#000000;stroke-width:10;stroke-miterlimit:10;}
	.st6{fill:#FFB14E;}
	.st7{fill:#174461;}
</style>
<path class="st0" d="M468.6,256h-74.7V105.7c0-34.3,27.9-62.3,62.3-62.3h12.5V256z"/>
<path class="st0" d="M43.4,43.4h12.5c34.3,0,62.3,27.9,62.3,62.3V256H43.4V43.4z"/>
<path class="st0" d="M256,43.4l-49.8,139.1l247.8-3.9C423,99.5,345.9,43.4,256,43.4z"/>
<path class="st1" d="M58,178.6l198,3.9V43.4C166.1,43.4,89,99.5,58,178.6z"/>
<path class="st2" d="M356.5,131.4c-41.2,0-77.8,20.1-100.5,51l-74.7,143.1L256,468.6c117.2,0,212.6-95.4,212.6-212.6
	c0-27.3-5.2-53.4-14.6-77.4C431.2,149.9,395.9,131.4,356.5,131.4z"/>
<path class="st3" d="M155.5,131.4c-39.5,0-74.7,18.4-97.5,47.1c-9.4,24-14.6,50.1-14.6,77.4c0,117.2,95.4,212.6,212.6,212.6V182.5
	C233.3,151.5,196.7,131.4,155.5,131.4z"/>
<polygon class="st2" points="213.1,232.2 190,241.7 155.5,318.3 248.7,318.3 "/>
<polygon class="st4" points="322,241.7 298.9,232.2 263.3,318.3 356.5,318.3 "/>
<path class="st5" d="M155.5,318.3c-34.3,0-62.3-27.9-62.3-62.3s27.9-62.3,62.3-62.3s62.3,27.9,62.3,62.3S189.9,318.3,155.5,318.3z"
	/>
<path class="st5" d="M356.5,318.3c-34.3,0-62.3-27.9-62.3-62.3s27.9-62.3,62.3-62.3s62.3,27.9,62.3,62.3S390.8,318.3,356.5,318.3z"
	/>
<path class="st6" d="M256,284l-12.5,56l46.7-21.8C290.2,299.4,274.9,284,256,284z"/>
<path class="st4" d="M221.8,318.3l34.2,34.2V284C237.1,284,221.8,299.4,221.8,318.3z"/>
<polygon class="st0" points="290.2,318.3 256,318.3 243.5,327 256,363.6 "/>
<polygon class="st1" points="221.8,318.3 256,363.6 256,318.3 "/>
<path class="st7" d="M155.5,256.3c6.3,0,11.4,5.1,11.5,11.4c0,0.1,0,0.1,0.1,0.2c0,0,0,0,0,0h16.8c0-15.7-12.7-28.3-28.3-28.3
	c-15.7,0-28.3,12.7-28.3,28.3H144C144,261.5,149.1,256.3,155.5,256.3z"/>
<path class="st7" d="M356.5,257c6.3,0,11.4,5.1,11.5,11.4c0,0.1,0,0.1,0.1,0.2c0,0,0,0,0,0h16.8c0-15.7-12.7-28.3-28.3-28.3
	c-15.7,0-28.3,12.7-28.3,28.3h16.8C344.9,262.2,350.1,257,356.5,257z"/>
</svg>
